<?xml version="1.0" standalone="no"?>
<!DOCTYPE svg PUBLIC "-//W3C//DTD SVG 20010904//EN"
        "http://www.w3.org/TR/2001/REC-SVG-20010904/DTD/svg10.dtd">
<svg version="1.0" xmlns="http://www.w3.org/2000/svg"
     width="1076.000000pt" height="239.000000pt" viewBox="0 0 1076.000000 239.000000"
     preserveAspectRatio="xMidYMid meet">
    <metadata>
        Created by potrace 1.16, written by Peter Selinger 2001-2019
    </metadata>
    <g transform="translate(0.000000,239.000000) scale(0.100000,-0.100000)"
       fill="#000000" stroke="none">
        <path d="M1115 2259 c-158 -21 -319 -80 -453 -169 -435 -286 -606 -807 -422
-1289 73 -189 220 -373 397 -493 324 -221 730 -254 1090 -88 l88 41 85 -40
c48 -22 127 -52 176 -67 82 -25 103 -27 274 -28 162 -1 196 2 275 22 612 156
967 771 784 1358 -116 372 -416 647 -802 736 -109 26 -344 31 -442 10 -93 -20
-213 -61 -287 -99 l-68 -33 -67 34 c-185 93 -417 131 -628 105z m1389 -85
c102 -9 268 -65 365 -123 307 -185 479 -462 498 -802 27 -481 -289 -902 -767
-1022 -66 -16 -116 -21 -225 -21 -174 0 -299 25 -437 89 l-47 22 47 36 c114
86 230 230 297 365 76 156 107 298 106 482 -1 208 -52 388 -158 558 -50 82
-166 210 -247 274 l-48 38 54 24 c79 35 173 62 258 75 133 20 143 20 304 5z
m-1042 -13 c88 -18 198 -54 248 -81 20 -11 20 -12 -17 -41 -184 -146 -316
-346 -380 -575 -26 -91 -28 -113 -27 -269 0 -153 3 -180 28 -270 34 -127 120
-299 194 -391 31 -39 94 -104 140 -144 l83 -74 -33 -17 c-18 -10 -67 -29 -108
-43 -497 -167 -1022 55 -1245 526 -228 482 -22 1053 470 1301 60 30 199 74
269 86 97 16 278 12 378 -8z m428 -200 c117 -93 231 -237 276 -347 13 -32 -20
-4 -192 168 -199 198 -208 208 -189 222 11 9 22 16 25 16 3 0 39 -27 80 -59z
m79 -312 l271 -265 10 -60 c6 -32 10 -83 10 -113 l0 -53 -292 289 c-161 159
-313 308 -338 331 l-45 41 50 51 c27 27 52 49 56 48 3 -2 128 -123 278 -269z
m228 -561 l52 -53 -19 -73 c-10 -41 -20 -75 -22 -77 -2 -2 -172 161 -377 363
l-374 367 18 35 c10 19 26 48 37 63 l20 28 306 -300 c169 -165 330 -323 359
-353z m-349 10 l322 -319 -24 -47 c-51 -99 -10 -126 -411 270 l-359 355 19 81
18 82 56 -52 c31 -29 201 -195 379 -370z m-90 -250 l282 -283 -49 -49 -50 -49
-280 274 c-154 151 -283 280 -286 288 -3 8 -9 58 -12 110 l-6 96 59 -52 c32
-28 186 -179 342 -335z m-98 -241 l204 -198 -22 -21 c-19 -19 -24 -20 -46 -8
-45 24 -139 109 -198 178 -73 85 -177 261 -149 250 5 -2 100 -92 211 -201z"/>
        <path d="M6212 1188 l3 -853 167 0 167 0 3 395 c3 377 4 397 24 440 45 96 122
144 230 144 123 -1 206 -67 224 -180 6 -32 10 -224 10 -426 l0 -368 175 0 175
0 0 353 c-1 547 -16 641 -129 769 -81 91 -186 130 -356 131 -119 1 -204 -23
-293 -83 l-57 -39 -3 285 -2 284 -170 0 -170 0 2 -852z"/>
        <path d="M5270 1589 c-241 -27 -449 -173 -551 -387 -142 -295 -2 -670 304
-819 119 -59 200 -77 327 -77 210 2 354 56 475 180 66 67 134 168 121 181 -3
3 -67 30 -142 60 l-137 54 -15 -22 c-40 -58 -79 -91 -140 -121 -61 -30 -74
-33 -162 -33 -111 0 -161 18 -234 85 -60 55 -92 112 -106 189 -14 81 -5 156
30 229 45 95 112 151 215 178 70 19 122 17 201 -7 60 -19 77 -30 137 -91 l69
-70 149 57 c82 32 149 60 149 62 0 11 -69 103 -110 147 -96 104 -264 187 -408
202 -31 3 -66 7 -77 8 -11 2 -54 -1 -95 -5z"/>
        <path d="M8123 1585 c-160 -35 -318 -163 -390 -315 -51 -109 -68 -189 -67
-320 0 -129 14 -189 69 -305 50 -105 108 -174 196 -233 203 -137 542 -133 702
7 l36 32 3 -53 3 -53 168 -3 167 -2 0 620 0 620 -167 -2 -168 -3 -3 -58 -3
-58 -35 30 c-48 42 -122 78 -196 96 -77 18 -232 18 -315 0z m375 -310 c104
-46 164 -131 182 -252 34 -241 -102 -413 -326 -413 -159 0 -250 52 -322 185
-25 46 -27 59 -27 165 0 123 10 155 73 238 80 105 277 141 420 77z"/>
        <path d="M9825 1586 c-279 -65 -478 -267 -525 -536 -14 -74 -7 -183 16 -262
48 -163 183 -323 334 -397 220 -107 433 -107 648 0 155 78 279 219 327 371 68
214 26 427 -117 596 -88 103 -188 169 -323 212 -89 28 -272 36 -360 16z m291
-311 c146 -65 226 -225 194 -388 -23 -117 -84 -198 -187 -249 -59 -29 -77 -33
-148 -33 -102 0 -183 34 -250 106 -71 76 -89 125 -90 244 0 90 3 106 28 157
29 58 109 141 157 161 97 40 210 41 296 2z"/>
    </g>
</svg>
